# xmcd CD database file
#
# Track frame offsets:
#	150
#	20085
#	42722
#	66267
#	66942
#	88322
#	111862
#	131840
#	155310
#	173805
#	195100
#	219870
#
# Disc length: 3264 seconds
#
# Revision: 0
# Processed by: cddbd v1.5PL3 Copyright (c) Steve Scherf et al.
# Submitted via: CDex 1.51
#
DISCID=ac0cbe0c
DTITLE=崎谷健次郎 - HOLIDAYS
DYEAR=1993
DGENRE=JPop
TTITLE0=おだやかな愛があれば
TTITLE1=泣かなくてもいい
TTITLE2=君がいた休日
TTITLE3=邂逅
TTITLE4=愛はいつも
TTITLE5=沈みゆくDIAMOND
TTITLE6=HEAVENLY SKY
TTITLE7=こわれものは君の涙
TTITLE8=あじさい
TTITLE9=偶然の支配
TTITLE10=届かないジェラシー
TTITLE11=OUR LIVES
EXTD=YEAR: 1993
EXTT0=
EXTT1=
EXTT2=
EXTT3=
EXTT4=
EXTT5=
EXTT6=
EXTT7=
EXTT8=
EXTT9=
EXTT10=
EXTT11=
PLAYORDER=
